<svg id="visual" viewBox="0 0 900 600" width="900" height="600" xmlns="http://www.w3.org/2000/svg" xmlns:xlink="http://www.w3.org/1999/xlink" version="1.1"><rect x="0" y="0" width="900" height="600" fill="#ffffff"></rect><defs><linearGradient id="grad1_0" x1="33.3%" y1="0%" x2="100%" y2="100%"><stop offset="20%" stop-color="#ffffff" stop-opacity="1"></stop><stop offset="80%" stop-color="#ffffff" stop-opacity="1"></stop></linearGradient></defs><defs><linearGradient id="grad2_0" x1="0%" y1="0%" x2="66.7%" y2="100%"><stop offset="20%" stop-color="#ffffff" stop-opacity="1"></stop><stop offset="80%" stop-color="#ffffff" stop-opacity="1"></stop></linearGradient></defs><g transform="translate(900, 0)"><path d="M0 324.5C-44.1 322.3 -88.2 320.1 -124.2 299.8C-160.1 279.5 -188 240.9 -205.1 205.1C-222.2 169.2 -228.6 135.9 -246.7 102.2C-264.8 68.4 -294.6 34.2 -324.5 0L0 0Z" fill="#4FACF7"></path></g><g transform="translate(0, 600)"><path d="M0 -324.5C41.7 -320.9 83.3 -317.3 124.2 -299.8C165.1 -282.3 205.1 -251 210 -210C214.9 -169.1 184.5 -118.5 197.7 -81.9C210.9 -45.3 267.7 -22.6 324.5 0L0 0Z" fill="#4FACF7"></path></g></svg>